<svg xmlns="http://www.w3.org/2000/svg" width="512" height="512"><path d="M256 0C114.609 0 0 114.609 0 256c0 141.391 114.609 256 256 256 141.391 0 256-114.609 256-256C512 114.609 397.391 0 256 0zm0 472c-119.297 0-216-96.703-216-216S136.703 40 256 40s216 96.703 216 216-96.703 216-216 216z"/><path d="M256 176H128v160h256V176H256zm0 16h89.719L256 255.75 166.281 192H256zm-112 4.531l54.5 36.859-54.5 59.422v-96.281zM256 320h-92.406l45.562-79.422L256 272.25l46.844-31.672L348.406 320H256zm112-27.188l-54.5-59.422 54.5-36.859v96.281z"/></svg>