<svg xmlns="http://www.w3.org/2000/svg" viewBox="0 0 368 368"><path d="M184 0C82.544 0 0 82.544 0 184s82.544 184 184 184c101.464 0 184-82.544 184-184S285.464 0 184 0zm0 352c-92.64 0-168-75.36-168-168S91.36 16 184 16c92.632 0 168 75.36 168 168s-75.368 168-168 168z"/><path d="M144 152c0-13.232-10.768-24-24-24s-24 10.768-24 24 10.768 24 24 24 24-10.768 24-24zm-32 0c0-4.408 3.592-8 8-8s8 3.592 8 8-3.592 8-8 8-8-3.592-8-8zm136-24c-13.232 0-24 10.768-24 24s10.768 24 24 24 24-10.768 24-24-10.768-24-24-24zm0 32c-4.416 0-8-3.592-8-8s3.584-8 8-8 8 3.592 8 8-3.584 8-8 8zm-64 64c-29.824 0-58.24 12.632-77.96 34.664-2.944 3.296-2.664 8.352.624 11.296a7.998 7.998 0 0011.296-.624C134.648 250.688 158.72 240 184 240c25.28 0 49.352 10.688 66.04 29.336A7.963 7.963 0 00256 272a7.966 7.966 0 005.336-2.04c3.288-2.944 3.568-8 .624-11.296C242.24 236.64 213.832 224 184 224z"/></svg>