<svg xmlns="http://www.w3.org/2000/svg" width="64" height="64"><path d="M32 3C16.01 3 3 16.009 3 32s13.01 29 29 29 29-13.009 29-29S47.99 3 32 3zm0 2c14.888 0 27 12.112 27 27S46.888 59 32 59 5 46.888 5 32 17.112 5 32 5zm0 4C19.317 9 9 19.318 9 32a1 1 0 102 0c0-11.58 9.421-21 21-21s21 9.42 21 21-9.421 21-21 21a1 1 0 100 2c12.683 0 23-10.318 23-23S44.683 9 32 9zm9.367 11.025a2.679 2.679 0 00-1.232.194c-.736.29-20.74 8.724-21.526 9.058-.822.28-1.731.986-1.597 2.053.152 1.212 1.418 1.694 1.576 1.75l4.875 1.643c.409 1.34 1.53 5.013 1.79 5.834.13.413.46 1.451 1.222 1.685.582.211 1.158.01 1.546-.29l2.848-2.597 4.736 3.631.21.123c.43.188.816.256 1.146.256.352 0 .641-.077.86-.166.908-.373 1.273-1.226 1.312-1.322L42.9 22.658c.276-1.228-.133-1.886-.525-2.22a1.803 1.803 0 00-1.008-.413zm-.385 2.014a2.047 2.047 0 01-.037.209l-3.693 18.926a.5.5 0 01-.188.176c-.099.039-.24.006-.351-.034l-5.955-4.568-3.572 3.264.753-4.797 9.655-9c.398-.371.265-.451.265-.451.027-.451-.601-.13-.601-.13L25.08 33.177l-.006-.022-5.82-1.959-.03-.011.098-.04c7.195-3.033 20.948-8.83 21.545-9.066.041-.017.08-.029.115-.039zM12.004 37.035a.988.988 0 00-.397.037l-1.916.574a1 1 0 00.574 1.916l1.917-.574a1 1 0 00-.178-1.953zm1.824 4.727a.988.988 0 00-.373.133l-1.717 1.027a1 1 0 101.026 1.717l1.716-1.028a1 1 0 00-.652-1.85zm3.307 4.07a.992.992 0 00-.707.291l-1.416 1.414a.999.999 0 101.412 1.416l1.416-1.414a1 1 0 00-.705-1.707zm4.209 3.186a.998.998 0 00-.998.474l-1.03 1.715a.998.998 0 00.858 1.516c.34 0 .67-.175.857-.487l1.03-1.713a1 1 0 00-.717-1.505zm4.472 2.08a.998.998 0 00-.85.705l-.577 1.914a1.002 1.002 0 00.957 1.29 1 1 0 00.957-.71l.578-1.916a1 1 0 00-1.065-1.283z"/></svg>